<?xml version="1.0" encoding="UTF-8" standalone="no"?>
<svg
   id="emoji"
   viewBox="0 0 72 72"
   version="1.1"
   sodipodi:docname="Angry.svg"
   inkscape:version="1.2.1 (9c6d41e410, 2022-07-14)"
   xmlns:inkscape="http://www.inkscape.org/namespaces/inkscape"
   xmlns:sodipodi="http://sodipodi.sourceforge.net/DTD/sodipodi-0.dtd"
   xmlns="http://www.w3.org/2000/svg"
   xmlns:svg="http://www.w3.org/2000/svg">
  <defs
     id="defs24" />
  <sodipodi:namedview
     id="namedview22"
     pagecolor="#ffffff"
     bordercolor="#000000"
     borderopacity="0.25"
     inkscape:showpageshadow="2"
     inkscape:pageopacity="0.0"
     inkscape:pagecheckerboard="0"
     inkscape:deskcolor="#d1d1d1"
     showgrid="false"
     inkscape:zoom="11.152778"
     inkscape:cx="32.234122"
     inkscape:cy="36.089664"
     inkscape:window-width="952"
     inkscape:window-height="968"
     inkscape:window-x="0"
     inkscape:window-y="30"
     inkscape:window-maximized="0"
     inkscape:current-layer="color" />
  <g
     id="color">
    <path
       fill="#E27022"
       d="M36,13c-12.6823,0-23,10.3177-23,23c0,12.6822,10.3177,23,23,23c12.6822,0,23-10.3178,23-23 C59,23.3177,48.6822,13,36,13z"
       id="path2"
       style="fill:#f2a038;fill-opacity:1" />
  </g>
  <g
     id="hair" />
  <g
     id="skin" />
  <g
     id="skin-shadow" />
  <g
     id="line">
    <circle
       cx="36"
       cy="36"
       r="23"
       fill="none"
       stroke="#000000"
       stroke-miterlimit="10"
       stroke-width="2"
       id="circle8" />
    <path
       fill="none"
       stroke="#000000"
       stroke-linecap="round"
       stroke-linejoin="round"
       stroke-miterlimit="10"
       stroke-width="2"
       d="M28,46c1.5805-2.5575,4.9043-4.1349,8.4211-4.0038C39.6499,42.1166,42.5622,43.6595,44,46"
       id="path10" />
    <path
       d="M30,32.9252c0,1.6567-1.3448,3-3,3c-1.6553,0-3-1.3433-3-3c0-1.6553,1.3447-3,3-3C28.6552,29.9252,30,31.27,30,32.9252"
       id="path12" />
    <path
       d="M48,32.9252c0,1.6567-1.3447,3-3,3s-3-1.3433-3-3c0-1.6553,1.3447-3,3-3S48,31.27,48,32.9252"
       id="path14" />
    <line
       x1="23"
       x2="30"
       y1="24"
       y2="28"
       fill="none"
       stroke="#000000"
       stroke-linecap="round"
       stroke-linejoin="round"
       stroke-miterlimit="10"
       stroke-width="2"
       id="line16" />
    <line
       x1="49"
       x2="42"
       y1="24"
       y2="28"
       fill="none"
       stroke="#000000"
       stroke-linecap="round"
       stroke-linejoin="round"
       stroke-miterlimit="10"
       stroke-width="2"
       id="line18" />
  </g>
</svg>
