<?xml version="1.0" encoding="UTF-8" standalone="no"?>
<!-- Created with Inkscape (http://www.inkscape.org/) -->

<svg
   xmlns:dc="http://purl.org/dc/elements/1.1/"
   xmlns:cc="http://creativecommons.org/ns#"
   xmlns:rdf="http://www.w3.org/1999/02/22-rdf-syntax-ns#"
   xmlns:svg="http://www.w3.org/2000/svg"
   xmlns="http://www.w3.org/2000/svg"
   xmlns:sodipodi="http://sodipodi.sourceforge.net/DTD/sodipodi-0.dtd"
   xmlns:inkscape="http://www.inkscape.org/namespaces/inkscape"
   id="svg2"
   sodipodi:docname="cal-1.svg"
   viewBox="0 0 299.995 353.862"
   version="1.1"
   inkscape:version="0.48.4 r9939"
   width="100%"
   height="100%">
  <defs
     id="defs18" />
  <sodipodi:namedview
     id="base"
     bordercolor="#666666"
     inkscape:pageshadow="2"
     inkscape:window-y="-1"
     fit-margin-left="0"
     pagecolor="#ffffff"
     inkscape:window-height="719"
     inkscape:window-maximized="1"
     inkscape:zoom="0.35"
     inkscape:window-x="0"
     showgrid="false"
     borderopacity="1.0"
     inkscape:current-layer="layer1"
     inkscape:cx="88.80847"
     inkscape:cy="360.52274"
     fit-margin-top="0"
     fit-margin-right="0"
     fit-margin-bottom="0"
     inkscape:window-width="1024"
     inkscape:pageopacity="0.0"
     inkscape:document-units="px" />
  <g
     id="layer1"
     inkscape:label="Layer 1"
     inkscape:groupmode="layer"
     transform="translate(-173.058,-809.51001)">
    <path
       id="rect3032-6"
       style="fill:#ffffff"
       inkscape:connector-curvature="0"
       d="m 254.63,809.51 c -9.2788,0 -16.766,7.4867 -16.766,16.766 l 0,47.206 c 0,9.2796 7.4867,16.766 16.766,16.766 9.2789,0 16.766,-7.4871 16.766,-16.766 l 0,-47.206 c 0,-9.2789 -7.4867,-16.766 -16.766,-16.766 z m 136.98,0 c -9.2789,0 -16.766,7.4867 -16.766,16.766 l 0,47.206 c 0,9.2796 7.4867,16.766 16.766,16.766 9.2788,0 16.766,-7.4871 16.766,-16.766 l 0,-47.206 c 0,-9.2789 -7.4867,-16.766 -16.766,-16.766 z m -173.13,47.087 c -25.126,0 -45.422,20.177 -45.422,45.303 l 0,216.05 c 0,25.127 20.296,45.422 45.422,45.422 l 209.27,0 c 25.126,0 45.303,-20.296 45.303,-45.422 l 0,-216.05 c 0,-25.126 -20.177,-45.303 -45.303,-45.303 l -0.83252,0 0,20.689 c 0,19.576 -15.741,35.315 -35.315,35.315 -19.574,0 -35.316,-15.74 -35.315,-35.315 l 0,-20.689 -66.35,0 0,20.689 c 0,19.576 -15.741,35.315 -35.315,35.315 -19.574,0 -35.316,-15.74 -35.315,-35.315 l 0,-20.689 -0.83253,0 z m -15.458,86.326 240.07,0 0,175.03 c 0,9.0601 -6.3749,15.458 -15.339,15.458 l -209.27,0 c -8.9639,0 -15.458,-6.4932 -15.458,-15.458 l 0,-175.03 z"
       sodipodi:nodetypes="sssssssssssssscssssssscsscccssccccccsssscc" />
    <text
       xml:space="preserve"
       style="font-size:118.38484191999999950px;font-style:normal;font-variant:normal;font-weight:normal;font-stretch:normal;text-align:start;line-height:125%;letter-spacing:0px;word-spacing:0px;writing-mode:lr-tb;text-anchor:start;fill:#ffffff;fill-opacity:1;stroke:none;font-family:'Carolingia (BigfooT)';-inkscape-font-specification:'Carolingia (BigfooT)'"
       x="312.91092"
       y="1061.2411"
       id="text2995"
       sodipodi:linespacing="125%"><tspan
         sodipodi:role="line"
         id="tspan2997"
         x="312.91092"
         y="1061.2411"
         style="font-size:118.38484191999999950px;font-style:normal;font-variant:normal;font-weight:normal;font-stretch:normal;text-align:start;line-height:125%;writing-mode:lr-tb;text-anchor:start;font-family:'Carolingia (BigfooT)';-inkscape-font-specification:'Carolingia (BigfooT)';fill:#ffffff">1</tspan></text>
  </g>
  <metadata
     id="metadata18">
    <rdf:RDF>
      <cc:Work>
        <dc:format>image/svg+xml</dc:format>
        <dc:type
           rdf:resource="http://purl.org/dc/dcmitype/StillImage" />
        <cc:license
           rdf:resource="http://creativecommons.org/licenses/publicdomain/" />
        <dc:publisher>
          <cc:Agent
             rdf:about="http://openclipart.org/">
            <dc:title>Openclipart</dc:title>
          </cc:Agent>
        </dc:publisher>
        <dc:title />
      </cc:Work>
      <cc:License
         rdf:about="http://creativecommons.org/licenses/publicdomain/">
        <cc:permits
           rdf:resource="http://creativecommons.org/ns#Reproduction" />
        <cc:permits
           rdf:resource="http://creativecommons.org/ns#Distribution" />
        <cc:permits
           rdf:resource="http://creativecommons.org/ns#DerivativeWorks" />
      </cc:License>
    </rdf:RDF>
  </metadata>
</svg>
