<?xml version="1.0" encoding="UTF-8" standalone="no"?>
<svg
   xmlns:dc="http://purl.org/dc/elements/1.1/"
   xmlns:cc="http://creativecommons.org/ns#"
   xmlns:rdf="http://www.w3.org/1999/02/22-rdf-syntax-ns#"
   xmlns:svg="http://www.w3.org/2000/svg"
   xmlns="http://www.w3.org/2000/svg"
   xmlns:xlink="http://www.w3.org/1999/xlink"
   id="svg8"
   version="1.1"
   viewBox="0 0 202.85529 30.050012"
   height="30.050013mm"
   width="202.85529mm">
  <defs
     id="defs2">
    <linearGradient
       id="linearGradient1307">
      <stop
         id="stop1303"
         offset="0"
         style="stop-color:#ef96a2;stop-opacity:1;" />
      <stop
         id="stop1305"
         offset="1"
         style="stop-color:#ef96a2;stop-opacity:0;" />
    </linearGradient>
    <linearGradient
       id="linearGradient1299">
      <stop
         id="stop1295"
         offset="0"
         style="stop-color:#c8c8c8;stop-opacity:1;" />
      <stop
         id="stop1297"
         offset="1"
         style="stop-color:#c8c8c8;stop-opacity:0;" />
    </linearGradient>
    <linearGradient
       gradientTransform="matrix(0.51978142,0,0,1.0095042,79.3643,-1.1870474)"
       gradientUnits="userSpaceOnUse"
       y2="124.89645"
       x2="299.05399"
       y1="124.89645"
       x1="165.05402"
       id="linearGradient1301"
       xlink:href="#linearGradient1299" />
    <linearGradient
       gradientTransform="matrix(0.51978142,0,0,1.0095042,79.3643,-1.1870474)"
       gradientUnits="userSpaceOnUse"
       y2="124.89645"
       x2="299.05399"
       y1="124.89645"
       x1="165.05402"
       id="linearGradient1309"
       xlink:href="#linearGradient1307" />
  </defs>
  <metadata
     id="metadata5">
    <rdf:RDF>
      <cc:Work
         rdf:about="">
        <dc:format>image/svg+xml</dc:format>
        <dc:type
           rdf:resource="http://purl.org/dc/dcmitype/StillImage" />
        <dc:title></dc:title>
      </cc:Work>
    </rdf:RDF>
  </metadata>
  <g
     transform="translate(-32.054028,-109.89645)"
     id="layer1">
    <path
       transform="rotate(-15)"
       d="m 18.465741,58.616104 a 49.950001,49.950001 0 0 1 35.319984,-35.319986 49.950001,49.950001 0 0 1 48.247995,12.92801 49.950001,49.950001 0 0 1 12.92801,48.247997"
       id="path815-3-5"
       style="opacity:1;fill:#9366cd;fill-opacity:0.49019608;fill-rule:evenodd;stroke:#0500fc;stroke-width:0;stroke-linecap:round;stroke-linejoin:round;stroke-miterlimit:4;stroke-dasharray:none" />
    <path
       transform="rotate(-15)"
       d="m 181.97766,89.569938 a 49.950001,49.950001 0 0 1 62.373,-21.172784 49.950001,49.950001 0 0 1 29.13296,59.075796 49.950001,49.950001 0 0 1 -54.76778,36.59466 49.950001,49.950001 0 0 1 -43.43021,-49.52268 l 49.95,1e-5 z"
       id="path815"
       style="opacity:1;fill:#de2a42;fill-opacity:0.49019608;fill-rule:evenodd;stroke:#0500fc;stroke-width:0;stroke-linecap:round;stroke-linejoin:round;stroke-miterlimit:4;stroke-dasharray:none" />
    <path
       transform="rotate(-15)"
       d="m 176.98763,101.61693 a 49.950001,49.950001 0 0 1 4.99003,-12.046992 l 43.25797,24.975002 z"
       id="path815-3"
       style="opacity:1;fill:#9366cd;fill-opacity:0.49019608;fill-rule:evenodd;stroke:#0500fc;stroke-width:0;stroke-linecap:round;stroke-linejoin:round;stroke-miterlimit:4;stroke-dasharray:none" />
    <path
       transform="rotate(-15)"
       d="m 175.28563,114.54493 a 49.950001,49.950001 0 0 1 1.702,-12.928 l 48.248,12.92801 z"
       id="path815-3-6"
       style="opacity:1;fill:#5c9238;fill-opacity:0.49019608;fill-rule:evenodd;stroke:#0500fc;stroke-width:0;stroke-linecap:round;stroke-linejoin:round;stroke-miterlimit:4;stroke-dasharray:none" />
    <text
       id="text856"
       y="44.22818"
       x="164.45375"
       style="font-style:normal;font-variant:normal;font-weight:normal;font-stretch:normal;font-size:5.29166651px;line-height:6.61458302px;font-family:'red october';-inkscape-font-specification:'red october';letter-spacing:0px;word-spacing:0px;fill:#000000;fill-opacity:1;stroke:none;stroke-width:0.26458332px;stroke-linecap:butt;stroke-linejoin:miter;stroke-opacity:1"
       xml:space="preserve"><tspan
         id="tspan862"
         style="font-style:normal;font-variant:normal;font-weight:normal;font-stretch:normal;font-family:Symbola;-inkscape-font-specification:Symbola;text-align:center;text-anchor:middle;stroke-width:0.26458332px"
         y="44.22818"
         x="164.45375">“change nothing”</tspan><tspan
         id="tspan909"
         style="font-style:normal;font-variant:normal;font-weight:normal;font-stretch:normal;font-family:Symbola;-inkscape-font-specification:Symbola;text-align:center;text-anchor:middle;stroke-width:0.26458332px"
         y="50.998398"
         x="164.45375">(status quo)</tspan></text>
    <path
       transform="rotate(-15)"
       d="M 114.96173,84.472125 A 49.950001,49.950001 0 0 1 53.785727,119.79211 49.950001,49.950001 0 0 1 18.465741,58.616104 l 48.247996,12.928009 z"
       id="path815-3-6-3"
       style="opacity:1;fill:#5c9238;fill-opacity:0.49019608;fill-rule:evenodd;stroke:#0500fc;stroke-width:0;stroke-linecap:round;stroke-linejoin:round;stroke-miterlimit:4;stroke-dasharray:none" />
    <text
       id="text856-5"
       y="64.007912"
       x="162.5696"
       style="font-style:normal;font-variant:normal;font-weight:normal;font-stretch:normal;font-size:5.29166651px;line-height:6.61458349px;font-family:'red october';-inkscape-font-specification:'red october';letter-spacing:0px;word-spacing:0px;fill:#000000;fill-opacity:1;stroke:none;stroke-width:0.26458332px;stroke-linecap:butt;stroke-linejoin:miter;stroke-opacity:1"
       xml:space="preserve"><tspan
         id="tspan909-2"
         style="font-style:normal;font-variant:normal;font-weight:normal;font-stretch:normal;font-family:Symbola;-inkscape-font-specification:Symbola;text-align:center;text-anchor:middle;stroke-width:0.26458332px"
         y="64.007912"
         x="162.5696">option X</tspan><tspan
         id="tspan987"
         style="font-style:normal;font-variant:normal;font-weight:normal;font-stretch:normal;font-family:Symbola;-inkscape-font-specification:Symbola;text-align:center;text-anchor:middle;stroke-width:0.26458332px"
         y="70.77813"
         x="162.5696">(an identified</tspan><tspan
         id="tspan1034"
         style="font-style:normal;font-variant:normal;font-weight:normal;font-stretch:normal;font-family:Symbola;-inkscape-font-specification:Symbola;text-align:center;text-anchor:middle;stroke-width:0.26458332px"
         y="77.548347"
         x="162.5696"> alternative)</tspan></text>
    <text
       id="text856-9"
       y="89.256203"
       x="163.51454"
       style="font-style:normal;font-variant:normal;font-weight:normal;font-stretch:normal;font-size:5.29166651px;line-height:6.61458349px;font-family:'red october';-inkscape-font-specification:'red october';letter-spacing:0px;word-spacing:0px;fill:#000000;fill-opacity:1;stroke:none;stroke-width:0.26458332px;stroke-linecap:butt;stroke-linejoin:miter;stroke-opacity:1"
       xml:space="preserve"><tspan
         id="tspan989"
         style="font-style:normal;font-variant:normal;font-weight:normal;font-stretch:normal;font-family:Symbola;-inkscape-font-specification:Symbola;text-align:center;text-anchor:middle;stroke-width:0.26458332px"
         y="89.256203"
         x="163.51454">“find other options”</tspan><tspan
         id="tspan993"
         style="font-style:normal;font-variant:normal;font-weight:normal;font-stretch:normal;font-family:Symbola;-inkscape-font-specification:Symbola;text-align:center;text-anchor:middle;stroke-width:0.26458332px"
         y="96.026421"
         x="163.51454">(all as-yet unidentified</tspan><tspan
         id="tspan1018"
         style="font-style:normal;font-variant:normal;font-weight:normal;font-stretch:normal;font-family:Symbola;-inkscape-font-specification:Symbola;text-align:center;text-anchor:middle;stroke-width:0.26458332px"
         y="102.79664"
         x="163.51454"> alternatives)</tspan></text>
    <path
       d="m 112.98561,36.316412 c -0.0414,-0.63595 0.35277,-1.181198 0.72055,-1.660422 0.76286,-0.893236 1.77438,-1.491705 2.79638,-2.039734 1.24131,-0.661866 2.57305,-1.121534 3.92814,-1.484318 1.32777,-0.329541 2.6747,-0.604615 4.0405,-0.705654 0.67366,-0.0158 1.36935,-0.03287 2.03341,0.109709 0.34248,0.07354 0.46007,0.137176 0.77824,0.266851 0.75356,0.374092 1.15291,1.079889 1.53591,1.791407 0.37458,0.7983 0.74764,1.597644 1.08918,2.410714 0.26463,0.681463 0.41952,1.396084 0.5754,2.107919 0.1137,0.666427 0.35238,1.298723 0.60399,1.922949 0.26486,0.68692 0.66798,1.301745 1.08988,1.900203 0.49691,0.688766 1.05142,1.321742 1.69317,1.87746 0.77793,0.675404 1.65027,1.220758 2.56657,1.685332 0.95502,0.504431 1.98584,0.815822 3.02608,1.085919 0.87003,0.193709 1.74705,0.360752 2.63024,0.482555 0.40605,0.03685 0.81046,0.07095 1.19646,0.209391 0.22434,0.01807 -0.0683,0.228405 -0.0328,-0.04985 0,0 0.16748,-0.08302 0.16748,-0.08302 v 0 c -0.0137,0.144428 -0.1334,0.326448 -0.2898,0.237625 -0.3839,-0.137761 -0.78654,-0.170268 -1.19011,-0.209156 -0.88255,-0.124005 -1.75921,-0.291232 -2.62864,-0.486214 -1.04111,-0.270627 -2.0722,-0.584335 -3.02789,-1.08933 -0.91751,-0.465624 -1.79113,-1.011909 -2.57047,-1.688039 -0.64268,-0.556879 -1.1989,-1.190402 -1.69641,-1.880621 -0.42319,-0.599207 -0.82713,-1.215303 -1.09322,-1.903145 -0.25169,-0.625229 -0.49152,-1.258406 -0.60497,-1.925881 -0.15602,-0.710756 -0.30924,-1.42476 -0.57298,-2.105491 -0.34084,-0.812752 -0.71212,-1.612323 -1.0878,-2.409489 -0.38135,-0.707792 -0.77921,-1.409811 -1.52992,-1.780415 -0.93317,-0.3785 -1.80251,-0.421807 -2.80363,-0.372116 -1.36439,0.101973 -2.71003,0.376563 -4.03633,0.70666 -1.35505,0.364532 -2.68654,0.825606 -3.9276,1.488837 -0.9291,0.469839 -1.80003,1.073049 -2.49209,1.857507 -0.3655,0.473594 -0.76144,1.013518 -0.7222,1.643806 0,0 -0.1647,0.08805 -0.1647,0.08805 z"
       id="path1024"
       style="opacity:1;fill:#000000;fill-opacity:0.49019608;fill-rule:evenodd;stroke:#050000;stroke-width:1;stroke-linecap:round;stroke-linejoin:round;stroke-miterlimit:4;stroke-dasharray:none;stroke-opacity:1" />
    <path
       d="m 118.21372,67.952616 c -0.35862,-0.205337 -0.75119,-0.349787 -1.07275,-0.614719 -0.0495,-0.08992 -0.0931,-0.126183 -0.0601,-0.236591 0.0956,-0.319921 0.83418,-0.644699 1.05675,-0.766357 1.34628,-0.663652 2.81275,-1.011105 4.27118,-1.32664 1.65801,-0.332504 3.35524,-0.389937 5.03834,-0.280156 1.31977,0.06918 2.60968,0.340111 3.8755,0.705511 0.97053,0.256424 1.92167,0.576485 2.87427,0.891286 0.71471,0.231638 1.43746,0.428572 2.17952,0.547926 0.47196,0.07664 0.94205,0.08745 1.41482,0.02455 0.40978,-0.03853 0.8048,-0.152363 1.2052,-0.241223 0.25094,-0.05458 0.50573,-0.05427 0.74769,-0.142843 0.27985,-0.09696 0.53821,-0.243372 0.81555,-0.347692 0.23455,-0.06837 0.11583,-0.03827 0.35618,-0.09013 0,0 -0.14761,0.112194 -0.14761,0.112194 v 0 c -0.23934,0.0533 -0.12116,0.02246 -0.3546,0.09236 -0.27688,0.106312 -0.53613,0.252373 -0.81692,0.348287 -0.24254,0.08454 -0.49818,0.08361 -0.74802,0.14016 -0.40032,0.08871 -0.79559,0.201375 -1.20536,0.239308 -0.47355,0.06122 -0.9447,0.04809 -1.41689,-0.02969 -0.74161,-0.121796 -1.4642,-0.319963 -2.17876,-0.551947 -0.95176,-0.315011 -1.90201,-0.63532 -2.87167,-0.892223 -1.26417,-0.364778 -2.55232,-0.635182 -3.87032,-0.704498 -1.6818,-0.108799 -3.37761,-0.05152 -5.03395,0.282908 -1.46033,0.317109 -2.9287,0.66684 -4.27498,1.335794 -0.27412,0.137459 -0.91134,0.398862 -0.69827,0.791073 0.3203,0.26452 0.71268,0.408038 1.07147,0.610531 0,0 -0.15624,0.102804 -0.15624,0.102804 z"
       id="path1026"
       style="opacity:1;fill:#000000;fill-opacity:0.49019608;fill-rule:evenodd;stroke:#050000;stroke-width:1;stroke-linecap:round;stroke-linejoin:round;stroke-miterlimit:4;stroke-dasharray:none;stroke-opacity:1" />
    <path
       d="m 187.90442,48.188038 c 0.4183,-0.278455 0.87294,-0.49399 1.33703,-0.688364 0.78197,-0.284001 1.59806,-0.460621 2.41767,-0.593889 1.12233,-0.172519 2.2541,-0.137493 3.38351,-0.09048 1.06905,0.08073 2.13598,0.185814 3.19469,0.355886 0.76303,0.111173 1.50628,0.297667 2.22868,0.564028 0.36193,0.100764 0.6723,0.36285 1.04778,0.41252 0.26491,0.0021 0.48266,-0.170852 0.68904,-0.313513 0.3379,-0.256087 0.65505,-0.537702 0.99268,-0.794067 0.13323,-0.0972 0.0708,-0.05249 0.18711,-0.134549 0,0 0.17406,-0.06858 0.17406,-0.06858 v 0 c -0.11736,0.08196 -0.0544,0.0373 -0.18862,0.134427 -0.33886,0.255339 -0.6562,0.537006 -0.99305,0.795009 -0.29692,0.207751 -0.63978,0.472081 -1.01378,0.488757 -0.37409,-0.06012 -0.68551,-0.312549 -1.04702,-0.417719 -0.72054,-0.26652 -1.46262,-0.450955 -2.22363,-0.563218 -1.0579,-0.169479 -2.12394,-0.275304 -3.19218,-0.355095 -1.12926,-0.04673 -2.26101,-0.08032 -3.38286,0.09451 -0.81974,0.134916 -1.63635,0.312055 -2.41767,0.599284 -0.46582,0.196112 -0.9172,0.412091 -1.3395,0.691877 0,0 0.14606,-0.116829 0.14606,-0.116829 z"
       id="path1028"
       style="opacity:1;fill:#000000;fill-opacity:0.49019608;fill-rule:evenodd;stroke:#050000;stroke-width:1;stroke-linecap:round;stroke-linejoin:round;stroke-miterlimit:4;stroke-dasharray:none;stroke-opacity:1" />
    <path
       d="m 180.91186,64.252027 c 0.75539,-0.251875 1.49979,-0.532929 2.25545,-0.784524 1.64019,-0.544893 3.29145,-1.055949 4.94037,-1.573728 1.9767,-0.624311 3.92986,-1.319189 5.90276,-1.955271 1.61592,-0.524256 3.21454,-1.105133 4.86064,-1.529255 0.72926,-0.221374 1.48209,-0.341706 2.24264,-0.366688 0.21563,-0.02768 0.3952,0.06423 0.58157,0.154987 0.12311,0.07781 0.2293,0.01 0.35093,-0.03315 0,0 -0.14764,0.115266 -0.14764,0.115266 v 0 c -0.12495,0.04558 -0.23557,0.100623 -0.36011,0.02127 -0.18402,-0.09003 -0.36104,-0.176466 -0.57392,-0.149254 -0.75732,0.02506 -1.50667,0.144973 -2.23311,0.36449 -1.64394,0.423497 -3.24077,1.002903 -4.85472,1.525998 -1.97303,0.636386 -3.92654,1.330896 -5.90336,1.955569 -1.65097,0.518647 -3.30409,1.031264 -4.94588,1.578396 -0.75792,0.253553 -1.50586,0.533707 -2.26167,0.792713 0,0 0.14605,-0.11683 0.14605,-0.11683 z"
       id="path1030"
       style="opacity:1;fill:#000000;fill-opacity:0.49019608;fill-rule:evenodd;stroke:#050000;stroke-width:1;stroke-linecap:round;stroke-linejoin:round;stroke-miterlimit:4;stroke-dasharray:none;stroke-opacity:1" />
    <path
       d="m 193.78924,84.924579 c 0.83515,0.08425 1.59922,-0.24928 2.34258,-0.58552 1.69301,-0.886947 3.15603,-2.133227 4.61077,-3.356785 1.76973,-1.516563 3.44457,-3.138398 5.14642,-4.729549 1.12546,-1.051028 2.35762,-1.982385 3.79793,-2.548059 0.92397,-0.301765 1.85191,-0.168894 2.77822,0.02778 0.71342,0.221158 1.44199,0.383162 2.16413,0.571521 0.236,0.06455 0.47665,0.106463 0.7179,0.144833 0,0 -0.15111,0.106149 -0.15111,0.106149 v 0 c -0.2412,-0.03925 -0.48178,-0.08206 -0.71771,-0.147122 -0.72099,-0.189331 -1.4484,-0.352475 -2.16122,-0.572487 -0.92437,-0.194561 -1.84958,-0.325318 -2.77036,-0.02058 -0.35123,0.139022 -0.58361,0.214219 -0.90366,0.396867 -0.95035,0.542345 -1.79128,1.242747 -2.59785,1.976987 -1.70335,1.590966 -3.37926,3.212992 -5.14865,4.731399 -1.5421,1.298294 -3.09699,2.606534 -4.90345,3.529044 -0.74791,0.336801 -1.51758,0.670372 -2.35717,0.582289 0,0 0.15323,-0.106767 0.15323,-0.106767 z"
       id="path1032"
       style="opacity:1;fill:#000000;fill-opacity:0.49019608;fill-rule:evenodd;stroke:#050000;stroke-width:1;stroke-linecap:round;stroke-linejoin:round;stroke-miterlimit:4;stroke-dasharray:none;stroke-opacity:1" />
    <rect
       y="110.39645"
       x="32.554028"
       height="29"
       width="66.499992"
       id="rect905"
       style="opacity:1;fill:#cab4e6;fill-opacity:1;fill-rule:evenodd;stroke:#c8c8c8;stroke-width:1;stroke-linecap:round;stroke-linejoin:round;stroke-miterlimit:4;stroke-dasharray:none;stroke-dashoffset:0;stroke-opacity:1" />
    <rect
       y="110.49646"
       x="99.054024"
       height="28.9"
       width="66.499992"
       id="rect905-7"
       style="opacity:1;fill:#afc99d;fill-opacity:1;fill-rule:evenodd;stroke:#c8c8c8;stroke-width:1.10000002;stroke-linecap:round;stroke-linejoin:round;stroke-miterlimit:4;stroke-dasharray:none;stroke-dashoffset:0;stroke-opacity:1" />
    <rect
       y="110.25864"
       x="165.4162"
       height="29.275623"
       width="69.13092"
       id="rect905-7-6"
       style="opacity:1;fill:url(#linearGradient1309);fill-opacity:1;fill-rule:evenodd;stroke:url(#linearGradient1301);stroke-width:0.72437662;stroke-linecap:round;stroke-linejoin:round;stroke-miterlimit:4;stroke-dasharray:none;stroke-dashoffset:0;stroke-opacity:1" />
    <text
       id="text856-8"
       y="122.57403"
       x="65.806625"
       style="font-style:normal;font-variant:normal;font-weight:normal;font-stretch:normal;font-size:5.29166651px;line-height:6.61458349px;font-family:Symbola;-inkscape-font-specification:Symbola;letter-spacing:0px;word-spacing:0px;fill:#000000;fill-opacity:1;stroke:none;stroke-width:0.26458332px;stroke-linecap:butt;stroke-linejoin:miter;stroke-opacity:1"
       xml:space="preserve"><tspan
         id="tspan909-7"
         style="font-style:normal;font-variant:normal;font-weight:normal;font-stretch:normal;font-family:Symbola;-inkscape-font-specification:Symbola;text-align:center;text-anchor:middle;stroke-width:0.26458332px"
         y="122.57403"
         x="65.806625">Status quo</tspan><tspan
         id="tspan1193"
         style="font-style:normal;font-variant:normal;font-weight:normal;font-stretch:normal;font-family:Symbola;-inkscape-font-specification:Symbola;text-align:center;text-anchor:middle;stroke-width:0.26458332px"
         y="129.18861"
         x="65.806625">(Change nothing)</tspan></text>
    <text
       id="text856-4-8"
       y="119.29884"
       x="132.17871"
       style="font-style:normal;font-variant:normal;font-weight:normal;font-stretch:normal;font-size:5.29166651px;line-height:6.61458349px;font-family:'red october';-inkscape-font-specification:'red october';letter-spacing:0px;word-spacing:0px;fill:#000000;fill-opacity:1;stroke:none;stroke-width:0.26458332px;stroke-linecap:butt;stroke-linejoin:miter;stroke-opacity:1"
       xml:space="preserve"><tspan
         id="tspan862-1-3"
         style="font-style:normal;font-variant:normal;font-weight:normal;font-stretch:normal;font-family:Symbola;-inkscape-font-specification:Symbola;text-align:center;text-anchor:middle;stroke-width:0.26458332px"
         y="119.29884"
         x="132.17871">Proposal X</tspan><tspan
         id="tspan1313"
         style="font-style:normal;font-variant:normal;font-weight:normal;font-stretch:normal;font-family:Symbola;-inkscape-font-specification:Symbola;text-align:center;text-anchor:middle;stroke-width:0.26458332px"
         y="126.06906"
         x="132.17871">(An available</tspan><tspan
         id="tspan1319"
         style="font-style:normal;font-variant:normal;font-weight:normal;font-stretch:normal;font-family:Symbola;-inkscape-font-specification:Symbola;text-align:center;text-anchor:middle;stroke-width:0.26458332px"
         y="132.83928"
         x="132.17871"> alternative)</tspan></text>
    <text
       id="text856-8-8"
       y="119.24354"
       x="198.67871"
       style="font-style:normal;font-variant:normal;font-weight:normal;font-stretch:normal;font-size:5.29166651px;line-height:6.61458349px;font-family:'red october';-inkscape-font-specification:'red october';letter-spacing:0px;word-spacing:0px;fill:#000000;fill-opacity:1;stroke:none;stroke-width:0.26458332px;stroke-linecap:butt;stroke-linejoin:miter;stroke-opacity:1"
       xml:space="preserve"><tspan
         id="tspan862-5-9"
         style="font-style:normal;font-variant:normal;font-weight:normal;font-stretch:normal;font-family:Symbola;-inkscape-font-specification:Symbola;text-align:center;text-anchor:middle;stroke-width:0.26458332px"
         y="119.24354"
         x="198.67871">Find other options</tspan><tspan
         id="tspan1207"
         style="font-style:normal;font-variant:normal;font-weight:normal;font-stretch:normal;font-family:Symbola;-inkscape-font-specification:Symbola;text-align:center;text-anchor:middle;stroke-width:0.26458332px"
         y="126.01376"
         x="198.67871">(All currently unavailable</tspan><tspan
         id="tspan1321"
         style="font-style:normal;font-variant:normal;font-weight:normal;font-stretch:normal;font-family:Symbola;-inkscape-font-specification:Symbola;text-align:center;text-anchor:middle;stroke-width:0.26458332px"
         y="132.78398"
         x="198.67871"> alternatives)</tspan></text>
  </g>
</svg>
