<?xml version="1.0" encoding="UTF-8" standalone="no"?>
<!-- Created with Inkscape (http://www.inkscape.org/) -->

<svg
   xmlns:dc="http://purl.org/dc/elements/1.1/"
   xmlns:cc="http://creativecommons.org/ns#"
   xmlns:rdf="http://www.w3.org/1999/02/22-rdf-syntax-ns#"
   xmlns:svg="http://www.w3.org/2000/svg"
   xmlns="http://www.w3.org/2000/svg"
   xmlns:sodipodi="http://sodipodi.sourceforge.net/DTD/sodipodi-0.dtd"
   xmlns:inkscape="http://www.inkscape.org/namespaces/inkscape"
   version="1.1"
   id="svg2"
   width="546.1333"
   height="546.1333"
   viewBox="0 0 546.1333 546.1333"
   sodipodi:docname="logo.svg"
   inkscape:version="0.92.2 5c3e80d, 2017-08-06">
  <metadata
     id="metadata8">
    <rdf:RDF>
      <cc:Work
         rdf:about="">
        <dc:format>image/svg+xml</dc:format>
        <dc:type
           rdf:resource="http://purl.org/dc/dcmitype/StillImage" />
        <dc:title />
      </cc:Work>
    </rdf:RDF>
  </metadata>
  <defs
     id="defs6" />
  <sodipodi:namedview
     pagecolor="#ffffff"
     bordercolor="#666666"
     borderopacity="1"
     objecttolerance="10"
     gridtolerance="10"
     guidetolerance="10"
     inkscape:pageopacity="0"
     inkscape:pageshadow="2"
     inkscape:window-width="1366"
     inkscape:window-height="716"
     id="namedview4"
     showgrid="false"
     inkscape:zoom="0.21606447"
     inkscape:cx="-179.69472"
     inkscape:cy="-78.541214"
     inkscape:window-x="0"
     inkscape:window-y="0"
     inkscape:window-maximized="1"
     inkscape:current-layer="g889" />
  <g
     id="g889">
    <path
       style="fill:#e54918;stroke-width:1.0666666"
       d="m 181.7101,436.36162 c -6.51976,-0.82139 -6.16227,-1.56001 2.46403,-5.09111 11.07881,-4.53501 20.77192,-10.59419 31.6693,-19.79654 7.75405,-6.54794 22.07747,-22.07003 24.40943,-26.45217 0.51852,-0.97437 2.00258,-2.9716 3.29791,-4.43827 2.80636,-3.17756 10.79031,-17.17835 14.90255,-26.13333 4.37381,-9.52458 9.70823,-25.4824 11.94503,-35.73333 2.29823,-10.5324 2.68141,-41.05618 0.57913,-46.13333 -1.89532,-4.57733 -4.7693,-3.75518 -6.89177,1.97151 -7.48097,20.18468 -29.58543,38.31545 -59.71691,48.98164 l -8.27459,2.92913 -4.48474,-5.09493 c -11.8337,-13.44379 -30.34832,-13.46278 -42.16067,-0.0432 l -4.44667,5.05169 -4.04602,-1.29381 C 117.44557,317.56752 96.13085,303.9581 85.721946,289.81861 81.212687,283.69321 75.576775,273.1253 75.576775,270.79537 c 0,-0.61615 3.299926,1.42939 7.333169,4.54563 14.148736,10.93189 32.998406,18.95144 54.786456,23.3088 17.31446,3.46269 48.31293,3.46269 65.6274,0 21.84269,-4.36828 41.8062,-12.93093 55.51639,-23.81183 9.94783,-7.89495 9.24178,-8.60116 -8.86344,-8.86558 -16.79139,-0.24522 -22.00154,-1.54389 -37.3297,-9.30466 -9.53418,-4.82722 -23.76157,-14.77721 -29.13928,-20.37868 l -3.53567,-3.68278 1.80864,-5.52958 c 2.70196,-8.26077 1.7128,-18.70226 -2.34688,-24.7733 -4.15201,-6.20912 -11.96682,-11.35071 -18.58694,-12.22891 -2.87811,-0.38179 -5.68418,-1.23789 -6.2357,-1.90242 -0.55152,-0.66455 -1.76329,-5.28382 -2.69284,-10.26506 -4.54102,-24.33447 -1.98213,-47.56192 7.12047,-64.63374 3.57415,-6.70328 7.98799,-12.81077 8.71028,-12.05255 0.22505,0.23623 -0.0663,3.30951 -0.6476,6.82951 -2.48625,15.05725 0.38698,40.6253 6.68446,59.48309 4.14928,12.42504 18.10742,40.32729 21.20244,42.38357 0.44151,0.29333 2.01807,2.45333 3.50345,4.8 5.69311,8.99417 20.36525,24.02188 32.15234,32.93155 6.906,5.22011 15.25753,9.98022 24.09807,13.73511 12.29156,5.22066 13.88132,3.73276 7.02733,-6.57712 -9.93646,-14.94656 -13.33147,-27.05991 -13.55824,-48.37555 -0.12792,-12.0239 0.86488,-20.92699 3.43112,-30.7693 0.92761,-3.55762 1.37712,-3.90628 5.82145,-4.51544 9.37259,-1.28466 17.78131,-7.16254 21.41717,-14.97108 2.96812,-6.37449 3.35755,-15.79084 0.93154,-22.52484 -0.84541,-2.34666 -1.54434,-4.84365 -1.55318,-5.54886 -0.0174,-1.38472 20.02048,-17.50676 25.13602,-20.22393 10.42047,-5.53496 15.29162,-7.8272 16.6332,-7.8272 0.83676,0 1.97738,-0.442813 2.53472,-0.984013 3.58252,-3.47886 34.19385,-6.26214 37.08418,-3.37182 0.82998,0.82999 0.7641,1.15583 -0.23368,1.15583 -2.80079,0 -19.48385,8.529863 -27.48518,14.052873 -15.51515,10.70949 -34.39231,31.51743 -44.85422,49.44193 -9.13644,15.6536 -16.57145,34.45904 -20.23154,51.17186 -2.0152,9.20185 -2.69167,38.01552 -1.07214,45.66622 1.17927,5.57085 4.58721,5.14278 6.89599,-0.86623 2.82592,-7.35498 10.72927,-18.31213 18.04113,-25.01212 12.09728,-11.08496 24.70759,-18.40884 41.71557,-24.22779 l 8.84678,-3.02675 3.89423,4.67684 c 4.86452,5.84214 14.77299,10.78814 21.61221,10.78814 6.83922,0 16.74769,-4.946 21.61221,-10.78814 l 3.89423,-4.67684 8.84677,3.02675 c 23.43903,8.0192 42.96468,21.84083 53.4321,37.82299 3.89719,5.9504 8.21468,14.75885 8.21468,16.7594 0,0.27461 -3.31991,-2.0658 -7.37759,-5.20093 -14.46356,-11.17513 -35.0349,-19.97733 -56.87536,-24.33621 -9.85307,-1.96645 -15.56271,-2.39768 -31.74704,-2.39768 -22.21261,0 -36.05106,2.09972 -53.08037,8.05389 -18.4145,6.43849 -41.25158,20.30741 -40.57185,24.63922 0.29296,1.86702 1.48973,2.0537 14.71889,2.29593 15.47857,0.28342 23.36192,2.1685 36.38649,8.70079 11.47322,5.75422 32.88454,21.90402 32.92671,24.83542 0.0111,0.76977 -0.76406,3.7971 -1.72252,6.7274 -5.30815,16.22875 4.09285,32.00877 21.14108,35.4863 l 6.72615,1.37201 1.27595,5.74582 c 0.70178,3.1602 1.87025,10.95065 2.59661,17.31212 2.77974,24.34516 -3.44388,49.1064 -16.00822,63.6901 l -3.21639,3.73333 1.21249,-4.26666 c 2.02678,-7.13209 1.63899,-35.94888 -0.61723,-45.86667 -3.26978,-14.37316 -8.37722,-28.64689 -15.07621,-42.13333 -11.56193,-23.27657 -31.96583,-46.83159 -52.5409,-60.65518 -6.78027,-4.55541 -20.30521,-11.24046 -25.25426,-12.48259 -4.5104,-1.13205 -4.64008,2.06498 -0.34053,8.39669 8.31878,12.25063 11.5641,21.32998 13.70421,38.33984 1.36012,10.81044 0.36377,25.85691 -2.58852,39.09096 l -1.27158,5.69998 -7.06545,1.77728 c -8.28093,2.08303 -15.69029,7.22684 -19.12853,13.27964 -3.20254,5.63785 -3.96051,15.99354 -1.68079,22.96337 0.95778,2.9283 1.74144,5.80525 1.74144,6.39322 0,0.58797 -4.98458,5.05777 -11.07683,9.93291 -17.9119,14.33342 -37.07766,22.66762 -54.10323,23.52669 -4.9243,0.24847 -10.39326,0.27035 -12.15326,0.0486 z M 277.412,401.772 c -6.34158,-1.14097 -10.41831,-4.38421 -12.56,-9.99212 -2.33141,-6.10471 -1.51281,-11.43677 2.52511,-16.44764 4.03323,-5.00506 7.05676,-6.44723 13.55661,-6.46632 15.33972,-0.045 22.31146,20.9269 10.0015,30.08586 -3.74935,2.78961 -8.35494,3.75009 -13.52322,2.82022 z M 163.57915,351.23107 c -4.94756,-2.67456 -6.71137,-4.65545 -8.63854,-9.70167 -2.23576,-5.85426 -1.47667,-11.10624 2.3258,-16.09153 8.86846,-11.62715 27.62137,-6.87798 29.96915,7.58968 0.87765,5.40825 -2.1796,12.79604 -6.73232,16.26857 -4.64504,3.54295 -12.3252,4.42101 -16.92409,1.93495 z m 209.26033,-20.19293 c -5.47481,-1.95257 -7.78111,-4.2301 -9.89888,-9.7754 -5.66557,-14.83507 9.72444,-28.01451 24.13096,-20.66484 12.07715,6.1613 10.67604,25.12462 -2.23812,30.29185 -5.06916,2.02828 -6.66746,2.04805 -11.99396,0.14839 z M 152.37731,231.11853 c -5.82229,-2.32167 -10.66721,-8.9888 -10.66721,-14.67924 0,-7.1043 5.95262,-15.30957 12.39749,-17.08908 8.51172,-2.3502 18.4469,3.38042 20.7612,11.97509 3.49993,12.99772 -9.9188,24.80663 -22.49148,19.79323 z m 207.40781,-20.03354 c -3.06215,-1.32066 -8.84211,-8.13437 -9.65808,-11.38544 -1.02229,-4.07313 0.23304,-11.11288 2.53635,-14.22365 9.80418,-13.24115 29.35294,-8.06543 30.91439,8.18488 0.57697,6.00462 -0.98876,9.78743 -6.03804,14.58796 -2.72846,2.59404 -4.34757,3.18764 -9.42855,3.45666 -3.37393,0.17866 -7.12066,-0.10048 -8.32607,-0.62041 z M 248.79123,159.88513 c -10.9317,-6.66596 -11.5765,-22.59515 -1.17144,-28.93944 4.28259,-2.61123 12.13008,-2.74139 17.27785,-0.28659 5.01775,2.39279 9.64799,11.35767 8.64031,16.72902 -2.16561,11.5437 -15.37259,18.21318 -24.74672,12.49701 z"
       id="path891"
       inkscape:connector-curvature="0" />
  </g>
</svg>
