<?xml version="1.0" encoding="UTF-8" standalone="no"?>
<!-- Created with Inkscape (http://www.inkscape.org/) -->

<svg
   xmlns:dc="http://purl.org/dc/elements/1.1/"
   xmlns:cc="http://creativecommons.org/ns#"
   xmlns:rdf="http://www.w3.org/1999/02/22-rdf-syntax-ns#"
   xmlns:svg="http://www.w3.org/2000/svg"
   xmlns="http://www.w3.org/2000/svg"
   xmlns:xlink="http://www.w3.org/1999/xlink"
   xmlns:sodipodi="http://sodipodi.sourceforge.net/DTD/sodipodi-0.dtd"
   xmlns:inkscape="http://www.inkscape.org/namespaces/inkscape"
   width="266.99997mm"
   height="30.050013mm"
   viewBox="0 0 266.99997 30.050012"
   version="1.1"
   id="svg8"
   inkscape:version="0.92.2 (5c3e80d, 2017-08-06)"
   sodipodi:docname="a_findOtherOptions.svg"
   inkscape:export-filename="/home/doug/private/a_findOtherOptions.svg.png"
   inkscape:export-xdpi="90"
   inkscape:export-ydpi="90">
  <defs
     id="defs2">
    <linearGradient
       inkscape:collect="always"
       id="linearGradient1307">
      <stop
         style="stop-color:#ef96a2;stop-opacity:1;"
         offset="0"
         id="stop1303" />
      <stop
         style="stop-color:#ef96a2;stop-opacity:0;"
         offset="1"
         id="stop1305" />
    </linearGradient>
    <linearGradient
       inkscape:collect="always"
       id="linearGradient1299">
      <stop
         style="stop-color:#c8c8c8;stop-opacity:1;"
         offset="0"
         id="stop1295" />
      <stop
         style="stop-color:#c8c8c8;stop-opacity:0;"
         offset="1"
         id="stop1297" />
    </linearGradient>
    <linearGradient
       inkscape:collect="always"
       xlink:href="#linearGradient1299"
       id="linearGradient1301"
       x1="165.05402"
       y1="124.89645"
       x2="299.054"
       y2="124.89645"
       gradientUnits="userSpaceOnUse" />
    <linearGradient
       inkscape:collect="always"
       xlink:href="#linearGradient1307"
       id="linearGradient1309"
       x1="165.05402"
       y1="124.89645"
       x2="299.054"
       y2="124.89645"
       gradientUnits="userSpaceOnUse" />
  </defs>
  <sodipodi:namedview
     id="base"
     pagecolor="#ffffff"
     bordercolor="#666666"
     borderopacity="1.0"
     inkscape:pageopacity="0.0"
     inkscape:pageshadow="2"
     inkscape:zoom="0.7"
     inkscape:cx="467.51886"
     inkscape:cy="233.94717"
     inkscape:document-units="mm"
     inkscape:current-layer="layer1"
     showgrid="false"
     inkscape:window-width="1366"
     inkscape:window-height="731"
     inkscape:window-x="0"
     inkscape:window-y="0"
     inkscape:window-maximized="1"
     fit-margin-top="0"
     fit-margin-left="0"
     fit-margin-right="0"
     fit-margin-bottom="0" />
  <metadata
     id="metadata5">
    <rdf:RDF>
      <cc:Work
         rdf:about="">
        <dc:format>image/svg+xml</dc:format>
        <dc:type
           rdf:resource="http://purl.org/dc/dcmitype/StillImage" />
        <dc:title></dc:title>
      </cc:Work>
    </rdf:RDF>
  </metadata>
  <g
     inkscape:label="Layer 1"
     inkscape:groupmode="layer"
     id="layer1"
     transform="translate(-32.054028,-109.89645)">
    <path
       style="opacity:1;fill:#9366cd;fill-opacity:0.49019608;fill-rule:evenodd;stroke:#0500fc;stroke-width:0;stroke-linecap:round;stroke-linejoin:round;stroke-miterlimit:4;stroke-dasharray:none"
       id="path815-3-5"
       sodipodi:type="arc"
       sodipodi:cx="37.067883"
       sodipodi:cy="63.600697"
       sodipodi:rx="49.950001"
       sodipodi:ry="49.950001"
       sodipodi:start="3.403392"
       sodipodi:end="0.26179939"
       d="M -11.180114,50.672687 A 49.950001,49.950001 0 0 1 24.13987,15.352701 49.950001,49.950001 0 0 1 72.387866,28.280712 49.950001,49.950001 0 0 1 85.315878,76.528708"
       transform="rotate(-15)"
       sodipodi:open="true" />
    <path
       style="opacity:1;fill:#de2a42;fill-opacity:0.49019608;fill-rule:evenodd;stroke:#0500fc;stroke-width:0;stroke-linecap:round;stroke-linejoin:round;stroke-miterlimit:4;stroke-dasharray:none"
       id="path815"
       sodipodi:type="arc"
       sodipodi:cx="195.58957"
       sodipodi:cy="106.60158"
       sodipodi:rx="49.950001"
       sodipodi:ry="49.950001"
       sodipodi:start="3.6651914"
       sodipodi:end="3.1415927"
       d="m 152.3316,81.626579 a 49.950001,49.950001 0 0 1 62.37301,-21.172785 49.950001,49.950001 0 0 1 29.13295,59.075796 49.950001,49.950001 0 0 1 -54.76778,36.59466 49.950001,49.950001 0 0 1 -43.43021,-49.52267 l 49.95,0 z"
       transform="rotate(-15)" />
    <path
       style="opacity:1;fill:#9366cd;fill-opacity:0.49019608;fill-rule:evenodd;stroke:#0500fc;stroke-width:0;stroke-linecap:round;stroke-linejoin:round;stroke-miterlimit:4;stroke-dasharray:none"
       id="path815-3"
       sodipodi:type="arc"
       sodipodi:cx="195.58957"
       sodipodi:cy="106.60158"
       sodipodi:rx="49.950001"
       sodipodi:ry="49.950001"
       sodipodi:start="3.403392"
       sodipodi:end="3.6651914"
       d="m 147.34157,93.673568 a 49.950001,49.950001 0 0 1 4.99003,-12.046989 l 43.25797,24.975001 z"
       transform="rotate(-15)" />
    <path
       style="opacity:1;fill:#5c9238;fill-opacity:0.49019608;fill-rule:evenodd;stroke:#0500fc;stroke-width:0;stroke-linecap:round;stroke-linejoin:round;stroke-miterlimit:4;stroke-dasharray:none"
       id="path815-3-6"
       sodipodi:type="arc"
       sodipodi:cx="195.58957"
       sodipodi:cy="106.60158"
       sodipodi:rx="49.950001"
       sodipodi:ry="49.950001"
       sodipodi:start="3.1415927"
       sodipodi:end="3.403392"
       d="m 145.63957,106.60158 a 49.950001,49.950001 0 0 1 1.702,-12.928012 l 48.248,12.928012 z"
       transform="rotate(-15)" />
    <text
       xml:space="preserve"
       style="font-style:normal;font-variant:normal;font-weight:normal;font-stretch:normal;font-size:5.29166651px;line-height:6.61458302px;font-family:'red october';-inkscape-font-specification:'red october';letter-spacing:0px;word-spacing:0px;fill:#000000;fill-opacity:1;stroke:none;stroke-width:0.26458332px;stroke-linecap:butt;stroke-linejoin:miter;stroke-opacity:1"
       x="133.7625"
       y="44.22818"
       id="text856"><tspan
         sodipodi:role="line"
         x="133.7625"
         y="44.22818"
         style="font-style:normal;font-variant:normal;font-weight:normal;font-stretch:normal;font-family:'urw palladio l';-inkscape-font-specification:'urw palladio l';text-align:center;text-anchor:middle;stroke-width:0.26458332px"
         id="tspan862">“change nothing”</tspan><tspan
         sodipodi:role="line"
         x="133.7625"
         y="51.021439"
         style="font-style:normal;font-variant:normal;font-weight:normal;font-stretch:normal;font-family:'urw palladio l';-inkscape-font-specification:'urw palladio l';text-align:center;text-anchor:middle;stroke-width:0.26458332px"
         id="tspan909">(status quo)</tspan></text>
    <path
       style="opacity:1;fill:#5c9238;fill-opacity:0.49019608;fill-rule:evenodd;stroke:#0500fc;stroke-width:0;stroke-linecap:round;stroke-linejoin:round;stroke-miterlimit:4;stroke-dasharray:none"
       id="path815-3-6-3"
       sodipodi:type="arc"
       sodipodi:cx="37.067883"
       sodipodi:cy="63.600697"
       sodipodi:rx="49.950001"
       sodipodi:ry="49.950001"
       sodipodi:start="0.26179939"
       sodipodi:end="3.403392"
       d="M 85.315878,76.528708 A 49.950001,49.950001 0 0 1 24.139872,111.84869 49.950001,49.950001 0 0 1 -11.180114,50.672687 l 48.247997,12.92801 z"
       transform="rotate(-15)" />
    <text
       xml:space="preserve"
       style="font-style:normal;font-variant:normal;font-weight:normal;font-stretch:normal;font-size:5.29166651px;line-height:6.61458349px;font-family:'red october';-inkscape-font-specification:'red october';letter-spacing:0px;word-spacing:0px;fill:#000000;fill-opacity:1;stroke:none;stroke-width:0.26458332px;stroke-linecap:butt;stroke-linejoin:miter;stroke-opacity:1"
       x="131.87834"
       y="64.007912"
       id="text856-5"><tspan
         sodipodi:role="line"
         x="131.87834"
         y="64.007912"
         style="font-style:normal;font-variant:normal;font-weight:normal;font-stretch:normal;font-family:'urw palladio l';-inkscape-font-specification:'urw palladio l';text-align:center;text-anchor:middle;stroke-width:0.26458332px"
         id="tspan909-2">option X</tspan><tspan
         sodipodi:role="line"
         x="131.87834"
         y="70.80117"
         style="font-style:normal;font-variant:normal;font-weight:normal;font-stretch:normal;font-family:'urw palladio l';-inkscape-font-specification:'urw palladio l';text-align:center;text-anchor:middle;stroke-width:0.26458332px"
         id="tspan987">(an identified</tspan><tspan
         sodipodi:role="line"
         x="131.87834"
         y="77.594429"
         style="font-style:normal;font-variant:normal;font-weight:normal;font-stretch:normal;font-family:'urw palladio l';-inkscape-font-specification:'urw palladio l';text-align:center;text-anchor:middle;stroke-width:0.26458332px"
         id="tspan1034"> alternative)</tspan></text>
    <text
       xml:space="preserve"
       style="font-style:normal;font-variant:normal;font-weight:normal;font-stretch:normal;font-size:5.29166651px;line-height:6.61458349px;font-family:'red october';-inkscape-font-specification:'red october';letter-spacing:0px;word-spacing:0px;fill:#000000;fill-opacity:1;stroke:none;stroke-width:0.26458332px;stroke-linecap:butt;stroke-linejoin:miter;stroke-opacity:1"
       x="132.82329"
       y="89.256203"
       id="text856-9"><tspan
         sodipodi:role="line"
         x="132.82329"
         y="89.256203"
         style="font-style:normal;font-variant:normal;font-weight:normal;font-stretch:normal;font-family:'urw palladio l';-inkscape-font-specification:'urw palladio l';text-align:center;text-anchor:middle;stroke-width:0.26458332px"
         id="tspan989">“find other options”</tspan><tspan
         sodipodi:role="line"
         x="132.82329"
         y="96.049461"
         style="font-style:normal;font-variant:normal;font-weight:normal;font-stretch:normal;font-family:'urw palladio l';-inkscape-font-specification:'urw palladio l';text-align:center;text-anchor:middle;stroke-width:0.26458332px"
         id="tspan993">(all as-yet unidentified</tspan><tspan
         sodipodi:role="line"
         x="132.82329"
         y="102.84272"
         style="font-style:normal;font-variant:normal;font-weight:normal;font-stretch:normal;font-family:'urw palladio l';-inkscape-font-specification:'urw palladio l';text-align:center;text-anchor:middle;stroke-width:0.26458332px"
         id="tspan1018"> alternatives)</tspan></text>
    <path
       style="opacity:1;fill:#000000;fill-opacity:0.49019608;fill-rule:evenodd;stroke:#050000;stroke-width:1;stroke-linecap:round;stroke-linejoin:round;stroke-miterlimit:4;stroke-dasharray:none;stroke-opacity:1"
       id="path1024"
       d="m 82.293856,36.316412 c -0.04145,-0.63595 0.352761,-1.181198 0.720545,-1.660422 0.762855,-0.893236 1.774367,-1.491705 2.79636,-2.039734 1.241301,-0.661866 2.573036,-1.121534 3.92812,-1.484318 1.327764,-0.329541 2.674689,-0.604615 4.040479,-0.705654 0.673653,-0.0158 1.369343,-0.03287 2.033394,0.109709 0.342482,0.07354 0.460074,0.137176 0.778235,0.266851 0.75356,0.374092 1.152903,1.079889 1.535904,1.791407 0.374573,0.7983 0.747635,1.597644 1.089173,2.410714 0.264623,0.681463 0.419518,1.396084 0.575397,2.107919 0.1137,0.666427 0.352377,1.298723 0.603987,1.922949 0.26486,0.68692 0.66798,1.301745 1.08988,1.900203 0.49691,0.688766 1.05142,1.321742 1.69317,1.87746 0.77793,0.675404 1.65027,1.220758 2.56657,1.685332 0.95502,0.504431 1.98584,0.815822 3.02608,1.085919 0.87003,0.193709 1.74705,0.360752 2.63024,0.482555 0.40605,0.03685 0.81046,0.07095 1.19646,0.209391 0.22434,0.01807 -0.0683,0.228405 -0.0328,-0.04985 0,0 0.16748,-0.08302 0.16748,-0.08302 v 0 c -0.0137,0.144428 -0.1334,0.326448 -0.2898,0.237625 -0.3839,-0.137761 -0.78654,-0.170268 -1.19011,-0.209156 -0.88255,-0.124005 -1.75921,-0.291232 -2.62864,-0.486214 -1.04111,-0.270627 -2.0722,-0.584335 -3.02789,-1.08933 -0.91751,-0.465624 -1.79113,-1.011909 -2.57047,-1.688039 -0.64268,-0.556879 -1.1989,-1.190402 -1.69641,-1.880621 -0.42319,-0.599207 -0.82713,-1.215303 -1.09322,-1.903145 -0.251686,-0.625229 -0.491513,-1.258406 -0.604971,-1.925881 -0.156012,-0.710756 -0.309232,-1.42476 -0.572971,-2.105491 -0.340837,-0.812752 -0.712111,-1.612323 -1.087798,-2.409489 -0.381341,-0.707792 -0.7792,-1.409811 -1.52991,-1.780415 -0.933167,-0.3785 -1.802501,-0.421807 -2.803607,-0.372116 -1.364385,0.101973 -2.710022,0.376563 -4.036314,0.70666 -1.355037,0.364532 -2.686524,0.825606 -3.927576,1.488837 -0.929095,0.469839 -1.800019,1.073049 -2.492079,1.857507 -0.365498,0.473594 -0.761428,1.013518 -0.722196,1.643806 0,0 -0.164692,0.08805 -0.164692,0.08805 z"
       inkscape:connector-curvature="0" />
    <path
       style="opacity:1;fill:#000000;fill-opacity:0.49019608;fill-rule:evenodd;stroke:#050000;stroke-width:1;stroke-linecap:round;stroke-linejoin:round;stroke-miterlimit:4;stroke-dasharray:none;stroke-opacity:1"
       id="path1026"
       d="m 87.52193,67.952616 c -0.358614,-0.205337 -0.751181,-0.349787 -1.072745,-0.614719 -0.04947,-0.08992 -0.09313,-0.126183 -0.06013,-0.236591 0.09563,-0.319921 0.834184,-0.644699 1.056749,-0.766357 1.346277,-0.663652 2.812738,-1.011105 4.271158,-1.32664 1.657996,-0.332504 3.355218,-0.389937 5.038312,-0.280156 1.319755,0.06918 2.609665,0.340111 3.875476,0.705511 0.97053,0.256424 1.92167,0.576485 2.87427,0.891286 0.71471,0.231638 1.43746,0.428572 2.17952,0.547926 0.47196,0.07664 0.94205,0.08745 1.41482,0.02455 0.40978,-0.03853 0.8048,-0.152363 1.2052,-0.241223 0.25094,-0.05458 0.50573,-0.05427 0.74769,-0.142843 0.27985,-0.09696 0.53821,-0.243372 0.81555,-0.347692 0.23455,-0.06837 0.11583,-0.03827 0.35618,-0.09013 0,0 -0.14761,0.112194 -0.14761,0.112194 v 0 c -0.23934,0.0533 -0.12116,0.02246 -0.3546,0.09236 -0.27688,0.106312 -0.53613,0.252373 -0.81692,0.348287 -0.24254,0.08454 -0.49818,0.08361 -0.74802,0.14016 -0.40032,0.08871 -0.79559,0.201375 -1.20536,0.239308 -0.47355,0.06122 -0.9447,0.04809 -1.41689,-0.02969 -0.74161,-0.121796 -1.4642,-0.319963 -2.17876,-0.551947 -0.95176,-0.315011 -1.90201,-0.63532 -2.87167,-0.892223 -1.264168,-0.364778 -2.552308,-0.635182 -3.870296,-0.704498 -1.681794,-0.108799 -3.377591,-0.05152 -5.03393,0.282908 -1.460312,0.317109 -2.928673,0.66684 -4.27495,1.335794 -0.274116,0.137459 -0.911339,0.398862 -0.698264,0.791073 0.320299,0.26452 0.712676,0.408038 1.071462,0.610531 0,0 -0.156242,0.102804 -0.156242,0.102804 z"
       inkscape:connector-curvature="0" />
    <path
       style="opacity:1;fill:#000000;fill-opacity:0.49019608;fill-rule:evenodd;stroke:#050000;stroke-width:1;stroke-linecap:round;stroke-linejoin:round;stroke-miterlimit:4;stroke-dasharray:none;stroke-opacity:1"
       id="path1028"
       d="m 157.21256,48.188038 c 0.4183,-0.278455 0.87294,-0.49399 1.33703,-0.688364 0.78197,-0.284001 1.59806,-0.460621 2.41767,-0.593889 1.12233,-0.172519 2.2541,-0.137493 3.38351,-0.09048 1.06905,0.08073 2.13598,0.185814 3.19469,0.355886 0.76303,0.111173 1.50628,0.297667 2.22868,0.564028 0.36193,0.100764 0.6723,0.36285 1.04778,0.41252 0.26491,0.0021 0.48266,-0.170852 0.68904,-0.313513 0.3379,-0.256087 0.65505,-0.537702 0.99268,-0.794067 0.13323,-0.0972 0.0708,-0.05249 0.18711,-0.134549 0,0 0.17406,-0.06858 0.17406,-0.06858 v 0 c -0.11736,0.08196 -0.0544,0.0373 -0.18862,0.134427 -0.33886,0.255339 -0.6562,0.537006 -0.99305,0.795009 -0.29692,0.207751 -0.63978,0.472081 -1.01378,0.488757 -0.37409,-0.06012 -0.68551,-0.312549 -1.04702,-0.417719 -0.72054,-0.26652 -1.46262,-0.450955 -2.22363,-0.563218 -1.0579,-0.169479 -2.12394,-0.275304 -3.19218,-0.355095 -1.12926,-0.04673 -2.26101,-0.08032 -3.38286,0.09451 -0.81974,0.134916 -1.63635,0.312055 -2.41767,0.599284 -0.46582,0.196112 -0.9172,0.412091 -1.3395,0.691877 0,0 0.14606,-0.116829 0.14606,-0.116829 z"
       inkscape:connector-curvature="0" />
    <path
       style="opacity:1;fill:#000000;fill-opacity:0.49019608;fill-rule:evenodd;stroke:#050000;stroke-width:1;stroke-linecap:round;stroke-linejoin:round;stroke-miterlimit:4;stroke-dasharray:none;stroke-opacity:1"
       id="path1030"
       d="m 150.22,64.252027 c 0.75539,-0.251875 1.49979,-0.532929 2.25545,-0.784524 1.64019,-0.544893 3.29145,-1.055949 4.94037,-1.573728 1.9767,-0.624311 3.92986,-1.319189 5.90276,-1.955271 1.61592,-0.524256 3.21454,-1.105133 4.86064,-1.529255 0.72926,-0.221374 1.48209,-0.341706 2.24264,-0.366688 0.21563,-0.02768 0.3952,0.06423 0.58157,0.154987 0.12311,0.07781 0.2293,0.01 0.35093,-0.03315 0,0 -0.14764,0.115266 -0.14764,0.115266 v 0 c -0.12495,0.04558 -0.23557,0.100623 -0.36011,0.02127 -0.18402,-0.09003 -0.36104,-0.176466 -0.57392,-0.149254 -0.75732,0.02506 -1.50667,0.144973 -2.23311,0.36449 -1.64394,0.423497 -3.24077,1.002903 -4.85472,1.525998 -1.97303,0.636386 -3.92654,1.330896 -5.90336,1.955569 -1.65097,0.518647 -3.30409,1.031264 -4.94588,1.578396 -0.75792,0.253553 -1.50586,0.533707 -2.26167,0.792713 0,0 0.14605,-0.11683 0.14605,-0.11683 z"
       inkscape:connector-curvature="0" />
    <path
       style="opacity:1;fill:#000000;fill-opacity:0.49019608;fill-rule:evenodd;stroke:#050000;stroke-width:1;stroke-linecap:round;stroke-linejoin:round;stroke-miterlimit:4;stroke-dasharray:none;stroke-opacity:1"
       id="path1032"
       d="m 163.09738,84.924579 c 0.83515,0.08425 1.59922,-0.24928 2.34258,-0.58552 1.69301,-0.886947 3.15603,-2.133227 4.61077,-3.356785 1.76973,-1.516563 3.44457,-3.138398 5.14642,-4.729549 1.12546,-1.051028 2.35762,-1.982385 3.79793,-2.548059 0.92397,-0.301765 1.85191,-0.168894 2.77822,0.02778 0.71342,0.221158 1.44199,0.383162 2.16413,0.571521 0.236,0.06455 0.47665,0.106463 0.7179,0.144833 0,0 -0.15111,0.106149 -0.15111,0.106149 v 0 c -0.2412,-0.03925 -0.48178,-0.08206 -0.71771,-0.147122 -0.72099,-0.189331 -1.4484,-0.352475 -2.16122,-0.572487 -0.92437,-0.194561 -1.84958,-0.325318 -2.77036,-0.02058 -0.35123,0.139022 -0.58361,0.214219 -0.90366,0.396867 -0.95035,0.542345 -1.79128,1.242747 -2.59785,1.976987 -1.70335,1.590966 -3.37926,3.212992 -5.14865,4.731399 -1.5421,1.298294 -3.09699,2.606534 -4.90345,3.529044 -0.74791,0.336801 -1.51758,0.670372 -2.35717,0.582289 0,0 0.15323,-0.106767 0.15323,-0.106767 z"
       inkscape:connector-curvature="0" />
    <rect
       style="opacity:1;fill:#cab4e6;fill-opacity:1;fill-rule:evenodd;stroke:#c8c8c8;stroke-width:1;stroke-linecap:round;stroke-linejoin:round;stroke-miterlimit:4;stroke-dasharray:none;stroke-dashoffset:0;stroke-opacity:1"
       id="rect905"
       width="66.499992"
       height="29"
       x="32.554028"
       y="110.39645"
       inkscape:export-xdpi="90"
       inkscape:export-ydpi="90" />
    <rect
       style="opacity:1;fill:#afc99d;fill-opacity:1;fill-rule:evenodd;stroke:#c8c8c8;stroke-width:1.10000002;stroke-linecap:round;stroke-linejoin:round;stroke-miterlimit:4;stroke-dasharray:none;stroke-dashoffset:0;stroke-opacity:1"
       id="rect905-7"
       width="66.499992"
       height="28.9"
       x="99.054024"
       y="110.49646"
       inkscape:export-xdpi="90"
       inkscape:export-ydpi="90" />
    <rect
       style="opacity:1;fill:url(#linearGradient1309);fill-opacity:1;fill-rule:evenodd;stroke:url(#linearGradient1301);stroke-width:1;stroke-linecap:round;stroke-linejoin:round;stroke-miterlimit:4;stroke-dasharray:none;stroke-dashoffset:0;stroke-opacity:1"
       id="rect905-7-6"
       width="132.99998"
       height="29"
       x="165.55402"
       y="110.39645"
       inkscape:export-xdpi="90"
       inkscape:export-ydpi="90" />
    <text
       xml:space="preserve"
       style="font-style:normal;font-variant:normal;font-weight:normal;font-stretch:normal;font-size:5.29166651px;line-height:6.61458349px;font-family:'red october';-inkscape-font-specification:'red october';letter-spacing:0px;word-spacing:0px;fill:#000000;fill-opacity:1;stroke:none;stroke-width:0.26458332px;stroke-linecap:butt;stroke-linejoin:miter;stroke-opacity:1"
       x="65.806625"
       y="122.57403"
       id="text856-8"
       inkscape:export-xdpi="90"
       inkscape:export-ydpi="90"><tspan
         sodipodi:role="line"
         x="65.806625"
         y="122.57403"
         style="font-style:normal;font-variant:normal;font-weight:bold;font-stretch:normal;font-family:'urw palladio l';-inkscape-font-specification:'urw palladio l';text-align:center;text-anchor:middle;stroke-width:0.26458332px"
         id="tspan909-7">Status quo</tspan><tspan
         sodipodi:role="line"
         x="65.806625"
         y="129.39903"
         style="font-style:normal;font-variant:normal;font-weight:normal;font-stretch:normal;font-family:'urw palladio l';-inkscape-font-specification:'urw palladio l';text-align:center;text-anchor:middle;stroke-width:0.26458332px"
         id="tspan1193">(Change nothing)</tspan></text>
    <text
       xml:space="preserve"
       style="font-style:normal;font-variant:normal;font-weight:normal;font-stretch:normal;font-size:5.29166651px;line-height:6.61458349px;font-family:'red october';-inkscape-font-specification:'red october';letter-spacing:0px;word-spacing:0px;fill:#000000;fill-opacity:1;stroke:none;stroke-width:0.26458332px;stroke-linecap:butt;stroke-linejoin:miter;stroke-opacity:1"
       x="132.17871"
       y="119.29884"
       id="text856-4-8"
       inkscape:export-xdpi="90"
       inkscape:export-ydpi="90"><tspan
         sodipodi:role="line"
         x="132.17871"
         y="119.29884"
         style="font-style:normal;font-variant:normal;font-weight:bold;font-stretch:normal;font-family:'urw palladio l';-inkscape-font-specification:'urw palladio l';text-align:center;text-anchor:middle;stroke-width:0.26458332px"
         id="tspan862-1-3">Proposal X</tspan><tspan
         sodipodi:role="line"
         x="132.17871"
         y="126.12386"
         style="font-style:normal;font-variant:normal;font-weight:normal;font-stretch:normal;font-family:'urw palladio l';-inkscape-font-specification:'urw palladio l';text-align:center;text-anchor:middle;stroke-width:0.26458332px"
         id="tspan1313">(An available</tspan><tspan
         sodipodi:role="line"
         x="132.17871"
         y="132.91711"
         style="font-style:normal;font-variant:normal;font-weight:normal;font-stretch:normal;font-family:'urw palladio l';-inkscape-font-specification:'urw palladio l';text-align:center;text-anchor:middle;stroke-width:0.26458332px"
         id="tspan1319"> alternative)</tspan></text>
    <text
       xml:space="preserve"
       style="font-style:normal;font-variant:normal;font-weight:normal;font-stretch:normal;font-size:5.29166651px;line-height:6.61458349px;font-family:'red october';-inkscape-font-specification:'red october';letter-spacing:0px;word-spacing:0px;fill:#000000;fill-opacity:1;stroke:none;stroke-width:0.26458332px;stroke-linecap:butt;stroke-linejoin:miter;stroke-opacity:1"
       x="198.67871"
       y="119.24354"
       id="text856-8-8"
       inkscape:export-xdpi="90"
       inkscape:export-ydpi="90"><tspan
         sodipodi:role="line"
         x="198.67871"
         y="119.24354"
         style="font-style:normal;font-variant:normal;font-weight:bold;font-stretch:normal;font-family:'urw palladio l';-inkscape-font-specification:'urw palladio l';text-align:center;text-anchor:middle;stroke-width:0.26458332px"
         id="tspan862-5-9">Find other options</tspan><tspan
         sodipodi:role="line"
         x="198.67871"
         y="126.06855"
         style="font-style:normal;font-variant:normal;font-weight:normal;font-stretch:normal;font-family:'urw palladio l';-inkscape-font-specification:'urw palladio l';text-align:center;text-anchor:middle;stroke-width:0.26458332px"
         id="tspan1207">(All currently unavailable</tspan><tspan
         sodipodi:role="line"
         x="198.67871"
         y="132.8618"
         style="font-style:normal;font-variant:normal;font-weight:normal;font-stretch:normal;font-family:'urw palladio l';-inkscape-font-specification:'urw palladio l';text-align:center;text-anchor:middle;stroke-width:0.26458332px"
         id="tspan1321"> alternatives)</tspan></text>
  </g>
</svg>
